<?xml version="1.0" standalone="no"?>
<!DOCTYPE svg PUBLIC "-//W3C//DTD SVG 20010904//EN"
 "http://www.w3.org/TR/2001/REC-SVG-20010904/DTD/svg10.dtd">
<svg version="1.0" xmlns="http://www.w3.org/2000/svg"
 width="530.000000pt" height="486.000000pt" viewBox="0 0 530.000000 486.000000"
 preserveAspectRatio="xMidYMid meet">

<g transform="translate(0.000000,486.000000) scale(0.100000,-0.100000)"
fill="#000000" stroke="none">
<path d="M3450 4844 c-295 -78 -550 -404 -616 -789 -22 -124 -15 -349 15 -460
79 -296 290 -487 541 -488 340 -2 649 318 747 776 13 60 18 123 17 232 -1 180
-27 294 -95 427 -51 99 -166 221 -246 262 -110 55 -248 71 -363 40z"/>
<path d="M1619 4839 c-119 -17 -208 -67 -307 -173 -198 -212 -257 -605 -141
-950 79 -237 227 -425 409 -520 325 -171 663 10 786 419 22 75 27 115 31 245
4 133 2 170 -17 260 -93 454 -426 769 -761 719z"/>
<path d="M395 3527 c-174 -45 -317 -197 -370 -392 -22 -82 -30 -253 -16 -345
57 -365 319 -674 627 -737 264 -54 502 117 581 417 27 102 22 289 -10 411 -80
303 -282 542 -533 630 -74 25 -211 33 -279 16z"/>
<path d="M4718 3529 c-140 -18 -275 -88 -401 -208 -191 -182 -299 -431 -300
-686 0 -198 60 -353 176 -462 300 -277 797 -91 1018 382 56 118 80 219 86 355
6 143 -11 234 -66 345 -100 201 -288 302 -513 274z"/>
<path d="M2484 2960 c-178 -24 -315 -101 -474 -266 -95 -99 -148 -167 -329
-422 -182 -257 -233 -318 -449 -532 -115 -114 -221 -229 -254 -275 -184 -260
-267 -555 -228 -805 49 -307 268 -561 550 -637 88 -24 292 -23 415 1 50 9 200
46 334 82 135 35 295 71 355 80 211 31 405 8 783 -95 292 -79 330 -86 498 -86
142 0 155 2 237 31 220 79 402 248 485 454 43 108 56 191 50 335 -6 160 -33
261 -111 420 -86 175 -158 267 -387 495 -225 225 -282 295 -467 583 -151 233
-219 323 -314 413 -84 80 -166 133 -261 168 -124 47 -314 71 -433 56z"/>
</g>
</svg>
